<svg width="56" height="56" viewBox="0 0 56 56" fill="none" xmlns="http://www.w3.org/2000/svg">
<rect width="56" height="56" rx="28" fill="#FB7E48"/>
<path d="M44 37.4826C43.6 37.4826 43.0667 37.4826 42.6667 37.3492C42.2667 37.3492 41.8667 37.0826 41.3333 37.0826C38.5333 37.0826 36.1333 35.8826 33.7333 34.5492C33.3333 34.2826 32.9333 33.6159 32.8 33.0826C32.5333 31.7492 32.4 30.4159 32.1333 29.0826C32.1333 28.6826 32 28.2826 32 27.8826C30.6667 29.4826 30.2667 32.2826 31.3333 34.0159C31.8667 34.8159 32.2667 35.6159 32.8 36.4159C33.0667 36.8159 33.3333 37.0826 33.8667 36.9492C35.8667 36.8159 37.7333 36.6826 39.7333 37.2159C40.2667 37.3492 40.8 37.4826 41.3333 37.7492C42.5333 38.4159 42.6667 39.6159 41.3333 40.1492C40.2667 40.6826 39.0667 41.0826 37.8667 41.3492C34.8 42.0159 31.6 42.2826 28.4 41.7492C26.1333 41.3492 24 41.8826 21.7333 42.1492C21.4667 42.1492 21.2 42.4159 20.9333 42.5492C20.6667 42.0159 20.6667 42.0159 22 40.9492C21.3333 40.9492 20.5333 40.9492 19.7333 40.9492C18.4 40.9492 16.9333 40.8159 15.6 40.6826C15.2 40.6826 14.6667 40.4159 14.2667 40.1492C13.2 39.4826 13.2 38.4159 14.2667 37.8826C15.3333 37.3492 16.5333 37.0826 17.7333 36.9492C19.0667 36.8159 20.5333 36.9492 22 36.9492C22.4 36.9492 22.6667 36.8159 22.9333 36.4159C23.3333 35.7492 23.7333 35.0826 24.1333 34.4159C25.4667 32.4159 25.2 29.8826 23.7333 27.7492C23.6 28.9492 23.4667 30.1492 23.3333 31.2159C23.3333 31.6159 23.2 32.0159 23.2 32.4159C23.0667 33.6159 22.4 34.4159 21.3333 34.9492C19.6 35.7492 17.8667 36.5492 16 36.9492C15.2 37.2159 14.2667 37.3492 13.3333 37.3492C12.9333 37.3492 12.4 37.3492 12 37.3492C12 37.2159 12 37.2159 12 37.0826C12.1333 36.9492 12.4 36.8159 12.5333 36.8159C13.0667 36.5492 13.6 36.2826 13.3333 35.4826C13.2 35.0826 13.4667 34.6826 14 34.8159C14.6667 35.0826 15.3333 35.3492 16 35.6159C16.1333 35.6159 16.4 35.6159 16.5333 35.6159C18 34.6826 19.4667 33.7492 20.9333 32.6826C21.2 32.5492 21.3333 32.0159 21.3333 31.7492C21.4667 30.2826 21.4667 28.9492 21.4667 27.4826C21.4667 26.9492 21.4667 26.5492 21.6 26.0159C21.7333 24.4159 22.5333 23.3492 24.1333 22.8159C24.8 22.6826 25.4667 22.2826 26 21.8826C26.6667 21.3492 26.6667 20.6826 26.1333 20.0159C24.9333 18.6826 24.6667 16.0159 25.7333 14.5492C26.6667 13.0826 29.0667 13.0826 30 14.5492C30.9333 16.0159 30.8 18.6826 29.6 20.0159C28.9333 20.8159 28.9333 21.3492 29.7333 22.0159C30.2667 22.4159 30.8 22.6826 31.3333 22.9492C33.2 23.4826 33.8667 24.8159 34 26.6826C34.1333 28.2826 34.1333 29.8826 34.1333 31.4826C34.1333 32.2826 34.4 32.8159 35.0667 33.2159C36.4 34.0159 37.6 34.8159 38.8 35.6159C39.0667 35.7492 39.3333 35.7492 39.6 35.6159C40.2667 35.4826 40.9333 35.0826 41.6 34.9492C41.7333 34.9492 42.2667 35.3492 42.1333 35.4826C41.7333 36.5492 42.5333 36.8159 43.2 37.0826C43.3333 37.0826 43.3333 37.2159 43.4667 37.2159C44 37.2159 44 37.3492 44 37.4826ZM14 34.9492C14 34.9492 13.8667 34.9492 13.8667 35.0826C14 35.3492 14 35.6159 14.1333 35.7492C14.2667 35.8826 14.6667 35.7492 14.9333 35.8826C14.9333 35.7492 14.9333 35.7492 14.9333 35.6159C14.5333 35.4826 14.2667 35.2159 14 34.9492ZM41.3333 35.6159C41.3333 35.7492 41.3333 35.7492 41.3333 35.8826C41.6 35.8826 41.8667 35.8826 42.1333 35.7492C42.2667 35.6159 42.2667 35.2159 42.2667 35.0826H42.1333C41.8667 35.2159 41.6 35.4826 41.3333 35.6159Z" fill="white"/>
</svg>
