<svg width="56" height="56" viewBox="0 0 56 56" fill="none" xmlns="http://www.w3.org/2000/svg">
<rect width="56" height="56" rx="28" fill="#FCDF51"/>
<path d="M24.1407 25.9806C25.7476 25.9806 27.3546 26.302 28.8009 26.9447C30.2471 27.5875 31.5327 28.2303 32.8183 28.7124C35.7108 29.998 38.6033 31.2835 41.4959 32.5691C41.9779 32.7298 42.46 33.0512 43.1028 33.2119C43.4242 33.3726 43.5849 33.5333 43.5849 33.8547C43.5849 34.4975 43.5849 35.301 43.7456 35.9437C43.7456 36.2651 43.5849 36.4258 43.4242 36.5865C41.8172 37.8721 40.2103 39.3184 38.6033 40.6039C37.7998 41.2467 36.8357 41.8895 36.0322 42.5323C35.5501 42.8537 35.068 43.0144 34.5859 42.8537C33.1397 42.3716 31.6934 42.0502 30.4078 41.5681C29.2829 41.2467 28.1581 40.7646 27.0332 40.4432C26.8725 40.4432 26.8725 40.4432 26.7118 40.6039C25.7476 41.7288 24.4621 42.693 23.1765 43.3358C21.0874 44.2999 18.9984 44.1392 16.9093 43.3358C15.9452 43.0144 15.1417 42.3716 14.3382 41.7288C12.5705 40.1218 11.9278 38.1935 12.4098 35.9437C12.7312 34.3368 13.5347 32.8905 14.4989 31.7656C15.6238 30.4801 16.7486 29.1945 18.1949 28.2303C19.6412 27.1054 21.2481 26.4627 23.0158 26.1413C23.3372 25.9806 23.8193 25.9806 24.1407 25.9806ZM34.2645 42.2109C34.2645 42.0502 34.2645 42.0502 34.2645 41.8895C34.2645 41.4074 34.2645 40.9253 34.2645 40.4432C34.2645 40.2825 34.2645 40.1218 33.9431 39.9611C30.4078 38.3542 27.0332 36.7472 23.4979 35.301C22.5337 34.8189 21.4088 34.3368 20.4447 33.8547C19.4805 33.3726 18.3556 33.2119 17.3914 33.3726C16.1059 33.5333 14.981 34.0154 14.3382 34.9796C13.5347 36.1044 13.2133 37.5507 13.6954 38.997C14.0168 39.9611 14.4989 40.7646 15.3024 41.4074C16.9093 42.693 18.5163 43.3358 20.6053 43.0144C22.0516 42.8537 23.4979 42.2109 24.6228 41.2467C25.2655 40.7646 25.9083 40.1218 26.5511 39.4791C26.7118 39.3184 26.7118 39.3184 26.8725 39.3184C29.1222 40.1218 31.372 40.9253 33.6217 41.5681C33.7824 41.8895 34.1038 42.0502 34.2645 42.2109ZM31.372 29.6766C31.372 29.6766 31.2113 29.6766 31.2113 29.5159C30.4078 29.1945 29.765 28.8731 28.9616 28.5517C28.8009 28.5517 28.8009 28.5517 28.6402 28.5517C26.7118 30.1587 24.7834 31.7656 22.8551 33.3726H22.6944C22.8551 33.5333 22.8551 33.5333 22.8551 33.5333C23.4979 33.8547 24.3014 34.1761 24.9441 34.4975C25.1048 34.4975 25.2655 34.4975 25.2655 34.4975C26.8725 33.0512 28.4795 31.7656 30.0864 30.3194C30.7292 30.1587 31.0506 29.8373 31.372 29.6766ZM42.6207 35.1403C42.46 35.1403 42.46 35.1403 42.6207 35.1403C42.46 35.1403 42.46 35.1403 42.46 35.1403C40.371 36.7472 38.4426 38.1935 36.3536 39.8004C36.3536 39.8004 36.1929 39.9611 36.1929 40.1218C36.1929 40.4432 36.1929 40.9253 36.1929 41.2467V41.4074C36.3536 41.4074 36.3536 41.2467 36.3536 41.2467C36.675 40.9253 36.9964 40.7646 37.3178 40.4432C38.9247 39.1577 40.6924 37.8721 42.2993 36.5865L42.46 36.4258C42.6207 35.9437 42.6207 35.6223 42.6207 35.1403Z" fill="white"/>
<path d="M27.676 22.9273C27.8367 22.4453 27.8367 21.8025 27.9974 21.3204C28.4795 18.4278 29.1222 15.3746 29.6043 12.4821C29.6043 12.1607 29.765 12 30.0864 12C30.4078 12 30.5685 12.3214 30.4078 12.6428C29.765 16.1781 29.1222 19.5527 28.4795 23.088C28.4795 23.4094 28.3188 23.5701 27.9974 23.4094C27.8367 23.4094 27.676 23.2487 27.676 22.9273Z" fill="white"/>
<path d="M18.8377 14.7318C18.9984 14.7318 19.1591 14.8925 19.1591 15.0532C19.6412 16.0174 20.1233 16.8209 20.6053 17.7851C21.7302 19.7134 22.8551 21.8025 23.98 23.7308C24.1407 24.0522 24.1407 24.2129 23.98 24.3736C23.8193 24.5343 23.4979 24.5343 23.3372 24.2129C23.1765 23.8915 23.0158 23.7308 22.8551 23.4094C21.4088 20.8383 19.9626 18.2672 18.5163 15.5353C18.5163 15.5353 18.5163 15.3746 18.3556 15.3746C18.3556 15.0532 18.5163 14.7318 18.8377 14.7318Z" fill="white"/>
<path d="M32.0148 25.8199C31.6934 25.8199 31.5327 25.6592 31.5327 25.4985C31.5327 25.3378 31.5327 25.1771 31.6934 25.0164C33.1397 23.7308 34.7466 22.4453 36.1929 21.1597C37.1571 20.3562 38.2819 19.392 39.2461 18.5885L39.4068 18.4278C39.5675 18.2672 39.8889 18.4279 40.0496 18.5885C40.2103 18.7492 40.2103 18.9099 39.8889 19.0706C39.2461 19.5527 38.6033 20.0348 38.1212 20.6776C36.1929 22.2846 34.2645 23.8915 32.3362 25.4985C32.1755 25.8199 32.1755 25.8199 32.0148 25.8199Z" fill="white"/>
</svg>
