<svg width="56" height="56" viewBox="0 0 56 56" fill="none" xmlns="http://www.w3.org/2000/svg">
<rect width="56" height="56" rx="28" fill="#4570DD"/>
<path d="M32.5809 16.249C33.6432 17.0456 34.1743 18.1079 34.1743 19.4357C34.1743 20.6307 33.7759 21.5602 32.9793 22.3568C31.7842 23.4191 30.4564 23.6846 28.9959 23.2863C28.9959 23.4191 28.9959 23.5519 28.9959 23.6846C28.9959 24.6141 28.9959 25.5436 28.9959 26.473C28.9959 26.8714 29.1286 26.8714 29.3942 26.8714C30.722 26.8714 32.1826 26.8714 33.5104 26.8714C34.1743 26.8714 34.7054 27.0042 34.971 27.6681C35.2365 28.1992 35.1037 28.7303 34.8382 29.2614C34.4398 29.9253 34.4398 30.722 34.8382 31.3859C35.3693 32.1826 36.5643 32.4481 37.4938 31.917C38.4232 31.3859 38.6888 30.1909 38.0249 29.2614C37.7593 28.7303 37.6266 28.1992 37.8921 27.6681C38.1577 27.1369 38.6888 27.0041 39.2199 27.0041C40.5477 27.0041 42.0083 27.0041 43.3361 27.0041C43.4689 27.0041 43.6017 27.0041 43.7344 27.0041C43.3361 19.0373 36.4315 12.3983 28.8631 12.1328V15.7178C30.3237 15.3195 31.5187 15.4523 32.5809 16.249Z" fill="white"/>
<path d="M40.2822 28.9959C41.0788 31.917 38.9544 34.0415 36.8299 34.1743C35.7676 34.3071 34.7054 33.9087 33.9087 33.2448C32.5809 32.0498 32.3154 30.5892 32.7137 28.9959H28.9959V30.3237C28.9959 31.5187 28.9959 32.5809 28.9959 33.7759C28.9959 35.1037 27.8008 35.6349 26.7386 34.971C26.6058 34.8382 26.473 34.8382 26.3403 34.7054C25.5436 34.4398 24.8797 34.5726 24.3485 35.1037C23.8174 35.6349 23.5519 36.166 23.8174 36.9627C24.083 38.2905 25.5436 38.8216 26.6058 38.1577C26.7386 38.0249 27.0042 37.8921 27.1369 37.8921C28.0664 37.6266 28.8631 38.2905 28.9959 39.3527C28.9959 40.6805 28.9959 42.1411 28.9959 43.4689V43.8672C33.2448 43.4689 36.8299 41.8755 39.751 38.6888C42.2739 35.9004 43.7344 32.7137 44 28.9959H40.2822Z" fill="white"/>
<path d="M16.249 23.2863C17.0456 22.2241 18.1079 21.6929 19.4357 21.5602C20.4979 21.5602 21.4274 21.8257 22.2241 22.6224C23.4191 23.8174 23.6846 25.1452 23.2863 26.7386H27.0041C27.0041 26.6058 27.0041 26.473 27.0041 26.3403C27.0041 24.8797 27.0041 23.4191 27.0041 21.9585C27.0041 21.029 27.8008 20.3651 28.7303 20.6307C28.9959 20.6307 29.1286 20.7635 29.3942 20.8963C30.1909 21.2946 30.9876 21.2946 31.6515 20.7635C32.4481 20.0996 32.5809 19.0373 32.0498 18.1079C31.3859 17.3112 30.3237 17.0456 29.3942 17.7095C28.8631 17.9751 28.4647 18.1079 27.9336 17.8423C27.4025 17.5768 27.1369 17.0456 27.1369 16.5145C27.1369 15.5851 27.1369 14.7884 27.1369 13.8589V12C22.6224 12.3983 18.9046 14.2573 16.1162 17.5768C13.8589 20.2324 12.5311 23.2863 12.2656 26.8714H15.9834C15.3195 25.5436 15.4523 24.3485 16.249 23.2863Z" fill="white"/>
<path d="M22.2241 38.6888C21.2946 37.361 21.2946 35.7676 22.2241 34.4398C23.2863 32.7137 24.8797 32.3154 26.8714 32.7137V28.9959H26.473C25.1452 28.9959 23.6846 28.9959 22.3568 28.9959C21.8257 28.9959 21.2946 28.8631 21.029 28.332C20.7635 27.8008 20.7635 27.2697 21.1618 26.7386C21.6929 25.9419 21.5602 24.8797 20.8963 24.2158C20.2324 23.5519 19.1701 23.5519 18.3734 24.2158C17.5768 24.8797 17.444 25.9419 18.1079 26.7386C18.5062 27.2697 18.5062 27.8008 18.2407 28.332C17.9751 28.8631 17.444 29.1286 16.9129 29.1286C15.5851 29.1286 14.1245 29.1286 12.7967 29.1286H12C12.2656 37.0954 19.1701 43.7344 26.8714 44V40.4149C25.0125 40.6805 23.4191 40.2822 22.2241 38.6888Z" fill="white"/>
</svg>
