<svg width="56" height="56" viewBox="0 0 56 56" fill="none" xmlns="http://www.w3.org/2000/svg">
<rect width="56" height="56" rx="28" fill="#A1D683"/>
<path d="M43.93 28.7934C43.3977 24.8264 41.2685 22.0496 37.4093 20.595C36.3447 20.1983 35.147 20.1983 34.0824 20.7273C33.5501 20.9917 32.8848 21.124 32.2194 21.3884C31.0217 21.7851 29.824 21.7851 28.6264 21.3884C27.961 21.124 27.2956 20.9917 26.6302 20.7273C25.6987 20.3306 24.7672 20.3306 23.8357 20.595C20.3757 21.6529 18.2465 24.0331 17.315 27.3388C17.0488 28.1322 17.0488 28.9256 16.9158 29.719H17.315C23.7026 29.719 29.9571 29.719 36.3447 29.719C37.2763 29.719 37.6755 30.2479 37.6755 31.0413C37.6755 33.2893 37.6755 35.5372 37.6755 37.9174C37.6755 38.843 37.2763 39.2397 36.3447 39.2397C31.0217 39.2397 25.8318 39.2397 20.5088 39.2397H19.9765C20.1096 39.5041 20.2426 39.5041 20.2426 39.6364C21.9726 41.7521 24.2349 43.2066 26.8964 43.7355C27.4287 43.8678 27.961 43.8678 28.6264 43.8678C29.5579 43.8678 30.4894 43.8678 31.554 43.8678C32.0863 43.8678 32.6186 44 33.1509 44C35.5463 43.7355 37.5424 42.8099 39.2724 41.2231C41.1354 39.5041 42.2 37.3884 42.9985 35.0083C43.6639 32.7603 44.1962 30.7769 43.93 28.7934Z" fill="white"/>
<path d="M32.3525 38.1818C32.4855 38.1818 32.4855 38.1818 32.6186 38.1818V30.5124H30.8886V31.1736C30.8886 32.4959 30.8886 33.6859 30.8886 35.0083C30.8886 35.2727 30.7556 35.5372 30.4894 35.5372C30.2233 35.5372 29.9571 35.405 29.9571 35.0083C29.9571 34.0826 29.9571 33.157 29.9571 32.0992V30.5124C29.4248 30.5124 28.8925 30.5124 28.4933 30.5124C28.2271 30.5124 28.0941 30.6446 28.0941 30.9091C28.0941 31.8347 28.0941 32.6281 28.0941 33.5537C28.0941 34.0826 28.0941 34.6116 28.0941 35.1405C28.0941 35.405 27.961 35.5372 27.6948 35.5372C27.4287 35.5372 27.2956 35.405 27.2956 35.1405V35.0083C27.2956 33.8182 27.2956 32.6281 27.2956 31.438C27.2956 31.1736 27.2956 30.9091 27.2956 30.6446H25.4326V32.0992C25.4326 33.157 25.4326 34.0826 25.4326 35.1405C25.4326 35.2727 25.2995 35.5372 25.1664 35.5372C25.0333 35.5372 24.7672 35.5372 24.7672 35.405C24.6341 35.2727 24.6341 35.1405 24.6341 34.876C24.6341 33.5537 24.6341 32.2314 24.6341 30.9091V30.5124H22.7711C22.7711 31.3058 22.7711 32.0992 22.7711 32.7603C22.7711 33.4215 22.7711 34.2149 22.7711 34.876C22.7711 35.2727 22.638 35.405 22.3718 35.405C22.1057 35.405 21.9726 35.2727 21.9726 34.876C21.9726 34.7438 21.9726 34.7438 21.9726 34.6116C21.9726 33.2893 21.9726 32.0992 21.9726 30.7769C21.9726 30.6446 21.8395 30.5124 21.8395 30.5124C21.3072 30.5124 20.7749 30.5124 20.1096 30.5124V30.9091C20.1096 32.2314 20.1096 33.4215 20.1096 34.7438C20.1096 34.876 20.1096 35.0083 20.1096 35.0083C19.9765 35.1405 19.8434 35.2727 19.7103 35.405C19.4442 35.405 19.3111 35.2727 19.3111 35.0083C19.3111 34.876 19.3111 34.876 19.3111 34.7438C19.3111 33.4215 19.3111 32.0992 19.3111 30.7769C19.3111 30.6446 19.178 30.5124 19.178 30.3802C18.6457 30.3802 18.1134 30.3802 17.5811 30.3802V31.3058C17.5811 32.4959 17.5811 33.6859 17.5811 34.876C17.5811 35.2727 17.315 35.5372 17.0488 35.405C16.7827 35.2727 16.6496 35.1405 16.6496 34.876C16.6496 34.0826 16.6496 33.2893 16.6496 32.6281V30.5124C15.9842 30.5124 15.4519 30.3802 14.7866 30.3802V31.438C14.7866 32.4959 14.7866 33.5537 14.7866 34.6116C14.7866 35.0083 14.6535 35.2727 14.3873 35.2727C14.1212 35.2727 13.9881 35.0083 13.9881 34.6116C13.9881 34.4793 13.9881 34.4793 13.9881 34.3471C13.9881 33.0248 13.9881 31.8347 13.9881 30.5124C13.9881 30.3802 13.9881 30.2479 13.855 30.1157C13.3227 29.8512 12.7904 29.5868 12.2581 29.4545V29.5868C12.2581 31.5702 12.2581 33.4215 12.2581 35.405C12.2581 35.6694 12.2581 35.9339 12.3912 36.1983C12.7904 37.5207 13.9881 38.314 15.4519 38.314C20.908 38.1818 26.6302 38.1818 32.3525 38.1818Z" fill="white"/>
<path d="M24.2349 17.157C25.9649 18.4793 27.961 18.4793 29.9571 18.0826C29.824 18.7438 29.824 19.2727 29.691 19.8017C29.5579 20.7273 29.691 20.8595 30.7556 20.7273C30.7556 20.7273 30.7556 20.7273 30.8886 20.7273C30.7556 17.0248 32.7517 14.5124 36.0786 12.9256C35.9455 12.6612 35.8124 12.3967 35.6793 12.1322C35.6793 12.1322 35.6794 12.1322 35.5463 12C33.284 13.0579 31.554 14.5124 30.4894 16.7603C28.3602 13.8512 25.2995 13.3223 21.8395 13.719C22.3718 15.1736 23.1703 16.2314 24.2349 17.157Z" fill="white"/>
<path d="M35.9455 30.5124C35.5463 30.5124 35.014 30.5124 34.6148 30.5124C34.2155 30.5124 33.9494 30.5124 33.5502 30.5124V38.314C34.4817 38.314 35.4132 38.314 36.2117 38.314C36.6109 38.314 36.6109 38.1818 36.6109 37.9174C36.6109 35.6694 36.6109 33.5537 36.6109 31.3058C36.744 30.5124 36.744 30.5124 35.9455 30.5124Z" fill="white"/>
<path d="M12.5243 28.5289C13.4558 29.3223 14.6535 29.4545 15.9842 29.5868C15.9842 28.1322 16.3835 26.8099 16.9158 25.4876C16.3835 25.4876 15.8512 25.4876 15.4519 25.6198C14.5204 25.7521 13.722 25.8843 12.7904 26.281C11.8589 26.8099 11.7258 27.7355 12.5243 28.5289Z" fill="white"/>
</svg>
