<svg width="110" height="50" viewBox="0 0 110 50" fill="none" xmlns="http://www.w3.org/2000/svg">
<path d="M24.6291 24.4856C24.1649 24.041 23.5052 23.7602 22.7966 23.7602C21.355 23.7602 20.1822 24.8833 20.1822 26.2638V48.7253H25.3866V26.2638C25.3866 25.5618 25.0933 24.9301 24.6291 24.4856Z" fill="black"/>
<path d="M47.2301 33.9368C47.2057 33.89 47.1569 33.8198 47.1324 33.773C46.4727 32.6734 45.6175 31.7843 44.518 31.1525C43.3696 30.474 42.0502 30.1464 40.5598 30.1464C38.263 30.1464 36.3328 30.9654 34.7935 32.5798V30.591H30.1511V48.724H35.1111V38.7801C35.1111 37.4932 35.502 36.4638 36.3083 35.6682C37.1146 34.8727 38.1164 34.475 39.3137 34.475C40.5598 34.475 41.5371 34.8727 42.2213 35.6448C42.9298 36.4169 43.2719 37.4698 43.2719 38.7801V48.724H48.2319V37.9612C48.2075 36.4637 47.8899 35.1301 47.2301 33.9368Z" fill="black"/>
<path d="M66.2883 40.5348C65.6286 39.8095 64.8223 39.2714 63.8938 38.9438C62.9653 38.6162 61.7925 38.2887 60.3509 37.9845C58.9827 37.6803 58.0053 37.3762 57.37 37.072C56.7592 36.7678 56.4416 36.2999 56.4416 35.6682C56.4416 35.0832 56.6859 34.6387 57.1501 34.3345C57.6144 34.0303 58.2497 33.8666 59.056 33.8666C59.9844 33.8666 60.7174 34.0771 61.2794 34.4983C61.8414 34.9194 62.159 35.5512 62.2323 36.3467H66.948C66.8747 35.1066 66.4838 34.0303 65.7508 33.071C65.0178 32.1117 64.0893 31.3864 62.9409 30.8717C61.7925 30.357 60.522 30.0996 59.1537 30.0996C57.7365 30.0996 56.466 30.3336 55.3176 30.8015C54.1693 31.2695 53.2896 31.9012 52.6299 32.7201C51.9702 33.539 51.6526 34.4515 51.6526 35.4576C51.6526 36.7678 51.9702 37.7973 52.6299 38.546C53.2896 39.3182 54.0715 39.8563 54.9756 40.2072C55.8796 40.5582 57.0524 40.8858 58.4451 41.1899C59.8378 41.4707 60.8396 41.7749 61.4749 42.0556C62.1102 42.3598 62.4278 42.8278 62.4278 43.5063C62.4278 44.1146 62.159 44.5826 61.597 44.8867C61.0595 45.1909 60.3265 45.3547 59.398 45.3547C58.2985 45.3547 57.4433 45.1207 56.8081 44.6294C56.1728 44.138 55.8307 43.4595 55.7574 42.5704H51.0662C51.1883 44.5358 52.0191 46.1268 53.534 47.3201C55.0488 48.5133 57.028 49.0983 59.4958 49.0983C61.7925 49.0983 63.6739 48.6069 65.1399 47.6008C66.5815 46.5947 67.3145 45.2377 67.3145 43.5297C67.2901 42.2662 66.9724 41.2601 66.2883 40.5348Z" fill="black"/>
<path d="M83.0742 30.5687V40.6997C83.0742 41.9632 82.7077 42.9693 81.9991 43.718C81.2905 44.4667 80.3376 44.8411 79.1648 44.8411C77.9676 44.8411 77.0147 44.4667 76.3305 43.718C75.622 42.9693 75.2799 41.9632 75.2799 40.6997V30.5687H70.3443V40.5828C70.3443 42.2674 70.7108 43.7648 71.4194 45.0517C72.128 46.3385 73.1542 47.3446 74.498 48.0699C75.8174 48.7718 77.4056 49.1462 79.2137 49.1462C81.0218 49.1462 82.5855 48.7952 83.9294 48.0699C85.2488 47.368 86.275 46.3619 87.008 45.0517C87.7166 43.7648 88.0831 42.2674 88.0831 40.5828V30.5687H83.0742Z" fill="black"/>
<path d="M108.974 33.9376C108.314 32.7443 107.41 31.8084 106.262 31.1299C105.113 30.4514 103.794 30.1238 102.303 30.1238C100.007 30.1238 98.0764 30.9427 96.5371 32.5571V30.5684H91.8947V48.7014H96.8547V38.7575C96.8547 37.4706 97.2457 36.4411 98.052 35.6456C98.8583 34.8501 99.8601 34.4523 101.057 34.4523C102.303 34.4523 103.281 34.8501 103.989 35.6222C104.698 36.3943 105.04 37.4472 105.04 38.7575V48.7014H110V37.9385C109.951 36.4645 109.634 35.1309 108.974 33.9376Z" fill="black"/>
<path d="M49.4536 23.7361L30.7619 23.7595C30.3954 22.2621 29.6135 20.9284 28.4895 19.8755L38.5562 4.08228C39.5824 4.7374 40.5353 5.46272 41.4394 6.25823L32.5211 20.2499H49.2092C49.3558 21.3963 49.4536 22.5428 49.4536 23.7361Z" fill="#A1D683"/>
<path d="M34.5246 1.99999L25.0933 18.074C24.3603 17.8634 23.5784 17.7464 22.7721 17.7464C21.9658 17.7464 21.1839 17.8634 20.4509 18.074L11.8991 3.49743C12.9254 2.88909 14.0249 2.37435 15.1488 1.9064L22.7721 14.9154L31.0062 0.853516C32.2523 1.13428 33.4007 1.53204 34.5246 1.99999Z" fill="#FCDF51"/>
<path d="M17.1035 19.8754C15.9796 20.9049 15.1977 22.2619 14.8312 23.7594H0V23.736C0 22.5427 0.0977284 21.3962 0.268764 20.2498H13.072L5.6686 8.64467C6.4749 7.70877 7.35452 6.84307 8.28299 6.04756L17.1035 19.8754Z" fill="#FFC600"/>
<path d="M17.1035 31.2934L9.87118 42.6646C8.89383 41.9627 7.96535 41.1671 7.08574 40.3248L13.072 30.9191H1.14838C0.781877 29.796 0.488674 28.6261 0.293206 27.4329H14.8312C15.1977 28.9069 15.9796 30.264 17.1035 31.2934Z" fill="#F32735"/>
</svg>
