<svg width="20" height="20" viewBox="0 0 20 20" fill="none" xmlns="http://www.w3.org/2000/svg">
<path d="M0.000976562 1.4325C0.000976562 0.64125 0.658477 0 1.46973 0H18.5322C19.3435 0 20.001 0.64125 20.001 1.4325V18.5675C20.001 19.3587 19.3435 20 18.5322 20H1.46973C0.658477 20 0.000976562 19.3587 0.000976562 18.5675V1.4325ZM6.17973 16.7425V7.71125H3.17848V16.7425H6.17973ZM4.67973 6.4775C5.72598 6.4775 6.37723 5.785 6.37723 4.9175C6.35848 4.03125 5.72723 3.3575 4.69973 3.3575C3.67223 3.3575 3.00098 4.0325 3.00098 4.9175C3.00098 5.785 3.65223 6.4775 4.65973 6.4775H4.67973ZM10.8147 16.7425V11.6988C10.8147 11.4288 10.8347 11.1587 10.9147 10.9662C11.131 10.4275 11.6247 9.86875 12.4547 9.86875C13.541 9.86875 13.9747 10.6962 13.9747 11.9113V16.7425H16.976V11.5625C16.976 8.7875 15.496 7.4975 13.521 7.4975C11.9285 7.4975 11.2147 8.3725 10.8147 8.98875V9.02H10.7947C10.8014 9.00957 10.808 8.99915 10.8147 8.98875V7.71125H7.81473C7.85223 8.55875 7.81473 16.7425 7.81473 16.7425H10.8147Z" fill="#67A039"/>
</svg>
