<svg width="20" height="20" viewBox="0 0 20 20" fill="none" xmlns="http://www.w3.org/2000/svg">
<path d="M18.7175 5.00065C18.0758 5.29232 17.3842 5.48398 16.6675 5.57565C17.4008 5.13398 17.9675 4.43398 18.2342 3.59232C17.5425 4.00898 16.7758 4.30065 15.9675 4.46732C15.3092 3.75065 14.3842 3.33398 13.3342 3.33398C11.3758 3.33398 9.77585 4.93398 9.77585 6.90898C9.77585 7.19232 9.80918 7.46732 9.86751 7.72565C6.90085 7.57565 4.25918 6.15065 2.50085 3.99232C2.19251 4.51732 2.01751 5.13398 2.01751 5.78398C2.01751 7.02565 2.64251 8.12565 3.60918 8.75065C3.01751 8.75065 2.46751 8.58398 1.98418 8.33398V8.35898C1.98418 10.0923 3.21751 11.5423 4.85085 11.8673C4.32645 12.0108 3.77593 12.0308 3.24251 11.9257C3.46885 12.6361 3.91213 13.2577 4.51003 13.7031C5.10793 14.1485 5.83039 14.3954 6.57585 14.409C5.3122 15.4094 3.74584 15.9501 2.13418 15.9423C1.85085 15.9423 1.56751 15.9257 1.28418 15.8923C2.86751 16.909 4.75085 17.5007 6.76751 17.5007C13.3342 17.5007 16.9425 12.0507 16.9425 7.32565C16.9425 7.16732 16.9425 7.01732 16.9342 6.85898C17.6342 6.35898 18.2342 5.72565 18.7175 5.00065Z" fill="#67A039"/>
</svg>
